<svg xmlns="http://www.w3.org/2000/svg" fill="none" viewBox="0 0 480 387" height="387" width="480">
<path fill="black" d="M73.9723 240.239L138.189 240.285L206.948 187.138H323.701L306.382 240.285H358.321L375.529 187.138H434.059L477.597 153.423H386.589L436.543 0H384.54L186.252 153.423H107.865L129.486 87.0179L0.0200195 187.136H142.643L73.9723 240.239ZM362.984 66.451L334.716 153.424H250.551L362.984 66.451Z"></path>
<path fill="black" d="M127.809 386.458H131.797V374.06H145.848V370.46H131.797V362.049H147.122V358.449H127.809V386.458Z"></path>
<path fill="black" d="M159.454 361.879H166.452V386.453H170.449V358.436H159.454V361.879Z"></path>
<path fill="black" d="M187.672 357.602C184.857 357.602 182.816 359.448 182.816 362.458C182.816 365.44 184.856 367.314 187.672 367.314C190.46 367.314 192.528 365.44 192.528 362.458C192.528 359.448 190.46 357.602 187.672 357.602ZM187.672 366.455C185.392 366.455 183.693 364.96 183.693 362.458C183.693 359.938 185.392 358.433 187.672 358.433C189.934 358.433 191.605 359.938 191.605 362.458C191.605 364.96 189.934 366.455 187.672 366.455Z"></path>
<path fill="black" d="M189.823 361.431C189.823 360.36 189.121 359.824 187.764 359.824H185.65V365.096H186.813V363.129H187.543L188.66 365.096H189.924L188.706 362.935C189.435 362.714 189.823 362.206 189.823 361.431ZM187.81 362.178H186.813V360.775H187.81C188.364 360.775 188.613 361.043 188.613 361.449C188.613 361.911 188.364 362.178 187.81 362.178Z"></path>
<path fill="black" d="M216.056 362.045H225.74V386.453H229.728V362.045H239.403V358.435H216.056L216.056 362.045Z"></path>
<path fill="black" d="M252.569 386.458H271.882V382.849H256.567V374.06H270.608V370.46H256.567V362.049H271.882V358.449H252.569V386.458Z"></path>
<path fill="black" d="M293.549 358.453L283.57 386.463H287.817L290.365 379.114H302.504L305.043 386.463H309.29L299.273 358.453H293.549ZM291.639 375.513L296.43 361.675L301.23 375.513H291.639Z"></path>
<path fill="black" d="M337.484 383.433L329.508 358.443H322.667V386.453H326.664V362.175L334.428 386.453H340.54L348.387 361.88V386.453H352.384V358.443H345.46L337.484 383.433Z"></path>
<path fill="black" d="M0 324.941H13.0814L19.9962 317.14H57.5235L64.4473 324.941H77.5288L38.7655 282.604L0 324.941ZM26.6253 309.754L38.7649 296.091L50.9047 309.754H26.6253Z"></path>
<path fill="black" d="M283.694 283.913H272.616V324.957H283.694V283.913Z"></path>
<path fill="black" d="M375.935 309.224L330.082 283.892H318.884V324.936H329.15V294.619L386.314 326.108V283.892H375.937L375.935 309.224Z"></path>
<path fill="black" d="M112.424 283.913H101.336V324.957H151.713L154.815 317.572H112.422L112.424 283.913Z"></path>
<path fill="black" d="M432.585 317.567V307.772H477.561V300.387H432.585V291.293H477.561V283.908H421.505V324.952H476.97L479.029 317.567L432.585 317.567Z"></path>
<path fill="black" d="M225.533 283.913H178.101V324.957H189.179V311.239H225.007C238.319 311.239 243.48 305.663 243.48 297.4C243.48 289.424 237.848 283.913 225.533 283.913ZM222.893 303.844H189.177V291.298H222.836C229.52 291.298 231.569 293.348 231.569 297.696C231.569 301.499 228.7 303.844 222.893 303.844Z"></path>
</svg>
