<svg width="1000" height="1000" viewBox="0 0 1000 1000" fill="none" xmlns="http://www.w3.org/2000/svg">
<g clip-path="url(#clip0_3_2)">
<rect width="1000" height="1000" fill="white"/>
<g clip-path="url(#clip1_3_2)">
<path d="M655.741 301.743C655.741 301.743 715.388 318.106 794.792 279.991C874.195 241.876 958.077 253.09 960.87 278.625C963.663 304.161 946.481 343.134 864.276 355.729C782.071 368.324 766.931 362.129 708.149 354.018C649.382 345.916 655.741 301.743 655.741 301.743Z" fill="black" stroke="black" stroke-width="16.3036" stroke-miterlimit="10" stroke-linecap="round" stroke-linejoin="round"/>
<path d="M278.972 346.761C278.972 346.761 236.026 234.257 258.917 168.816C281.808 103.375 302.333 46.6536 324.011 49.6105C345.689 52.5674 372.798 302.077 278.972 346.761Z" fill="black" stroke="black" stroke-width="16.3036" stroke-miterlimit="10" stroke-linecap="round" stroke-linejoin="round"/>
<path d="M675.063 736.235L394.296 729.579C394.296 729.579 213.141 590.418 163.727 707.793C114.313 825.168 243.067 847.952 243.067 847.952L211.441 940.043L249.837 944.71C230.203 958.609 219.654 970.598 219.654 970.598C219.654 970.598 250.715 1110.43 417.857 1115.52C584.999 1120.61 596.546 1037.99 596.546 1037.99C596.546 1037.99 582.359 1001.59 543.83 966.392L603.988 917.569C706.875 899.765 757.491 821.308 744.096 771.317C730.702 721.327 675.063 736.235 675.063 736.235Z" fill="white" stroke="black" stroke-width="16.3036" stroke-miterlimit="10" stroke-linecap="round" stroke-linejoin="round"/>
<path d="M306.846 745.694C306.846 745.694 228.466 872.509 235.057 879.508C241.648 886.508 309.758 916.852 309.758 916.852C349.831 906.115 385.425 896.116 417.331 904.969C455.235 915.496 481.276 964.482 519.183 975.021C557.562 961.213 595.956 947.414 634.335 933.606C634.335 933.606 610.331 748.429 593.786 744.545C577.238 740.649 306.846 745.694 306.846 745.694Z" fill="#003CFF"/>
<path d="M238.091 890.831C248.929 906.124 279.496 939.723 279.496 939.723C279.496 939.723 324.241 889.994 404.286 902.237C484.33 914.479 543.252 1003.16 543.252 1003.16L615.936 952.928L638.512 911.419" stroke="black" stroke-width="16.3036" stroke-miterlimit="10"/>
<path d="M417.504 753.117L508.955 754.896C508.955 754.896 448.095 858.819 397.071 829.356C346.047 799.893 417.504 753.117 417.504 753.117Z" fill="white" stroke="black" stroke-width="16.3036" stroke-miterlimit="10" stroke-linecap="round" stroke-linejoin="round"/>
<path d="M486.52 775.747C633.191 778.275 752.205 730.661 754.1 667.821C754.637 649.98 745.653 632.806 729.193 617.187C743.518 585.386 751.994 550.167 753.11 512.923C757.563 365.421 645.243 242.339 502.231 238.024C359.219 233.708 239.684 349.766 235.244 497.264C234.227 530.817 239.322 563.078 249.373 592.986C224.342 609.651 209.409 635.643 208.746 657.413C207.265 706.687 302.604 775.818 414.865 776.071" fill="white"/>
<path d="M486.52 775.747C633.191 778.275 752.205 730.661 754.1 667.821C754.637 649.98 745.653 632.806 729.193 617.187C743.518 585.386 751.994 550.167 753.11 512.923C757.563 365.421 645.243 242.339 502.231 238.024C359.219 233.708 239.684 349.766 235.244 497.264C234.227 530.817 239.322 563.078 249.373 592.986C224.342 609.651 209.409 635.643 208.746 657.413C207.265 706.687 302.604 775.818 414.865 776.071" stroke="black" stroke-width="16.3036" stroke-miterlimit="10" stroke-linecap="round" stroke-linejoin="round"/>
<path d="M551.407 828.83C551.407 828.83 598.507 907.824 598.284 922.198" stroke="black" stroke-width="16.3036" stroke-miterlimit="10" stroke-linecap="round" stroke-linejoin="round"/>
<path d="M478.047 775.544C480.888 775.629 483.712 775.692 486.532 775.744Z" fill="white"/>
<path d="M478.047 775.544C480.888 775.629 483.712 775.692 486.532 775.744" stroke="black" stroke-width="16.3036" stroke-miterlimit="10" stroke-linecap="round" stroke-linejoin="round"/>
<path d="M625.973 1103.48C673.907 1090.64 701.639 1038.7 687.914 987.477C674.189 936.254 624.204 905.142 576.27 917.986C528.335 930.83 500.603 982.766 514.328 1033.99C528.053 1085.21 578.038 1116.32 625.973 1103.48Z" fill="white" stroke="black" stroke-width="16.3036" stroke-miterlimit="10" stroke-linecap="round" stroke-linejoin="round"/>
<path d="M468.456 244.101C468.456 244.101 472.261 230.612 458.169 228.327C444.077 226.041 416 209.293 431.867 199.313C447.722 189.336 453.553 193.502 453.553 193.502C453.553 193.502 501.323 235.973 497.907 239.58C494.491 243.186 468.456 244.101 468.456 244.101Z" fill="black"/>
<path d="M503.635 233.316C503.635 233.316 481.538 187.336 474.519 187.538C467.501 187.74 492.897 154.267 511.698 175.372C530.5 196.477 527.032 231.02 524.355 235.184C521.678 239.349 503.635 233.316 503.635 233.316Z" fill="black"/>
<path d="M557.899 239.677C557.899 239.677 576.415 213.187 601.502 212.513C626.59 211.84 632.773 241.183 632.773 241.183C632.773 241.183 621.513 251.953 614.904 248.662C608.295 245.371 601.935 237.989 594.6 243.325C587.266 248.66 581.417 253.278 581.417 253.278L558.575 242.2L557.899 239.677Z" fill="black"/>
<path d="M249.131 1061.53C300.347 1047.81 330.739 995.156 317.014 943.934C303.289 892.711 250.644 862.312 199.428 876.035C148.212 889.758 117.82 942.407 131.545 993.63C145.27 1044.85 197.915 1075.25 249.131 1061.53Z" fill="white" stroke="black" stroke-width="16.3036" stroke-miterlimit="10" stroke-linecap="round" stroke-linejoin="round"/>
<path d="M611.003 638.183C615.191 622.554 610.353 607.677 600.198 604.955C590.044 602.234 578.417 612.698 574.23 628.327C570.043 643.957 574.881 658.834 585.035 661.555C595.19 664.277 606.816 653.813 611.003 638.183Z" fill="black"/>
<path d="M372.372 611.246C373.972 595.144 366.788 581.247 356.327 580.207C345.865 579.166 336.087 591.377 334.487 607.479C332.887 623.581 340.071 637.478 350.533 638.518C360.995 639.559 370.772 627.349 372.372 611.246Z" fill="black"/>
<path d="M488.178 663.845C489.218 653.382 478.227 643.724 463.63 642.272C449.033 640.82 436.356 648.125 435.317 658.588C434.277 669.051 445.268 678.709 459.865 680.161C474.463 681.613 487.139 674.308 488.178 663.845Z" fill="black"/>
<path d="M615.057 967.58C622.478 965.591 626.882 957.963 624.893 950.54C622.904 943.118 615.276 938.713 607.855 940.702C600.434 942.69 596.03 950.319 598.018 957.741C600.007 965.164 607.636 969.569 615.057 967.58Z" fill="black"/>
<path d="M645.619 1007.41C651.484 1004.21 652.998 995.672 649 988.329C645.002 980.986 637.006 977.623 631.141 980.816C625.276 984.01 623.762 992.552 627.76 999.895C631.758 1007.24 639.754 1010.6 645.619 1007.41Z" fill="black"/>
<path d="M577.36 977.944C582.764 974.019 583.163 965.354 578.251 958.588C573.339 951.822 564.976 949.519 559.572 953.443C554.168 957.367 553.769 966.033 558.681 972.798C563.593 979.564 571.956 981.868 577.36 977.944Z" fill="black"/>
<path d="M196.252 938.398C203.673 936.409 208.077 928.78 206.088 921.358C204.1 913.936 196.471 909.531 189.05 911.52C181.629 913.508 177.225 921.137 179.214 928.559C181.202 935.982 188.831 940.386 196.252 938.398Z" fill="black"/>
<path d="M253.988 940.342C256.08 934 251.34 926.734 243.402 924.115C235.463 921.495 227.331 924.513 225.239 930.856C223.147 937.198 227.887 944.464 235.826 947.083C243.765 949.703 251.896 946.685 253.988 940.342Z" fill="black"/>
<path d="M184.077 965.648C185.334 959.088 179.696 952.494 171.485 950.92C163.274 949.347 155.6 953.389 154.343 959.949C153.086 966.509 158.724 973.102 166.935 974.676C175.145 976.25 182.82 972.208 184.077 965.648Z" fill="black"/>
<path d="M242.956 1035.66C254.521 1032.27 261.672 1021.94 258.929 1012.57C256.187 1003.21 244.588 998.37 233.024 1001.76C221.46 1005.15 214.308 1015.48 217.051 1024.84C219.794 1034.21 231.392 1039.05 242.956 1035.66Z" fill="black"/>
<path d="M238.673 860.726C238.673 860.726 299.253 811.085 324.204 810.474" stroke="black" stroke-width="16.3036" stroke-miterlimit="10" stroke-linecap="round" stroke-linejoin="round"/>
<path d="M611.416 810.342C611.416 810.342 644.26 897.577 636.69 904.667" stroke="black" stroke-width="16.3036" stroke-miterlimit="10" stroke-linecap="round" stroke-linejoin="round"/>
<path d="M281.074 789.673C281.074 789.673 235.547 866.177 238.958 873.888" stroke="black" stroke-width="16.3036" stroke-miterlimit="10" stroke-linecap="round" stroke-linejoin="round"/>
</g>
</g>
<defs>
<clipPath id="clip0_3_2">
<rect width="1000" height="1000" fill="white"/>
</clipPath>
<clipPath id="clip1_3_2">
<rect width="1006.46" height="1192.6" fill="white" transform="translate(-104.18 152.913) rotate(-15)"/>
</clipPath>
</defs>
</svg>
